<svg id="Component" xmlns="http://www.w3.org/2000/svg" width="188.001" height="190.582" viewBox="0 0 188.001 190.582">
  <g id="Subtraction_1" data-name="Subtraction 1" transform="translate(0 68.098)" fill="#fff" stroke-linecap="round" stroke-linejoin="round">
    <path d="M 69.40463256835938 119.9837417602539 C 63.5288200378418 119.9837417602539 57.75542449951172 118.9421615600586 52.24481964111328 116.8879776000977 C 46.90695190429688 114.8981628417969 41.90402984619141 111.994873046875 37.37508392333984 108.2587661743164 C 32.88360977172852 104.5536117553711 28.96479225158691 100.1189041137695 25.72747802734375 95.07787322998047 C 22.43945121765137 89.95787811279297 19.93429374694824 84.33413696289063 18.28158187866211 78.36287689208984 L 17.68510818481445 76.20777130126953 L 15.47708225250244 76.56116485595703 C 15.03887176513672 76.63129425048828 14.5924243927002 76.66684722900391 14.15010833740234 76.66684722900391 C 11.1715030670166 76.66684722900391 8.325687408447266 75.07627105712891 6.136924743652344 72.18814086914063 C 3.791608810424805 69.09342956542969 2.500003576278687 64.9407958984375 2.500003576278687 60.49518966674805 C 2.500003576278687 56.049560546875 3.791608810424805 51.89692687988281 6.136924743652344 48.80226898193359 C 8.325687408447266 45.91408538818359 11.1715030670166 44.32350540161133 14.15010833740234 44.32350540161133 C 14.70097732543945 44.32350540161133 15.25334548950195 44.37818908691406 15.79189872741699 44.48600769042969 L 18.02053070068359 44.93224334716797 L 18.67637252807617 42.75603103637695 C 21.84668731689453 32.23629760742188 27.66118812561035 22.93319129943848 35.49129486083984 15.85245323181152 C 43.37929153442383 8.719243049621582 52.88994979858398 4.246716976165771 62.99510955810547 2.918427228927612 L 65.16929626464844 2.632637739181519 L 65.16929626464844 2.500006198883057 L 69.40463256835938 2.500006198883057 L 91.05522918701172 2.500006198883057 C 93.62581634521484 9.414258003234863 98.38562774658203 13.6307430267334 103.7694244384766 13.6307430267334 C 109.1532211303711 13.6307430267334 113.9130325317383 9.414258003234863 116.483642578125 2.500006198883057 L 185.5010070800781 2.500006198883057 L 185.5010070800781 40.8180046081543 L 122.8984756469727 40.8180046081543 L 119.6054000854492 40.8180046081543 L 120.4904479980469 43.98992919921875 C 122.0440063476563 49.55753326416016 122.8317108154297 55.3619270324707 122.8317108154297 61.24187469482422 C 122.8317108154297 69.20027160644531 121.4095306396484 76.91753387451172 118.6046600341797 84.1793212890625 C 115.9002151489258 91.18113708496094 112.0312118530273 97.46645355224609 107.1051330566406 102.8606872558594 C 102.19384765625 108.2386627197266 96.48040008544922 112.4583740234375 90.12347412109375 115.402587890625 C 83.56024169921875 118.4424285888672 76.58942413330078 119.9837417602539 69.40463256835938 119.9837417602539 Z" stroke="none"/>
    <path d="M 69.40464019775391 117.4837646484375 C 76.22383880615234 117.4837646484375 82.84117126464844 116.0203170776367 89.07280731201172 113.1340942382813 C 95.12694549560547 110.3301239013672 100.5727844238281 106.3064270019531 105.2590560913086 101.1748504638672 C 109.9749450683594 96.01076507568359 113.6804504394531 89.98957061767578 116.2725601196289 83.27851104736328 C 118.9660034179688 76.30526733398438 120.3316955566406 68.89106750488281 120.3316955566406 61.24187469482422 C 120.3316955566406 55.58893203735352 119.574951171875 50.01059722900391 118.0824508666992 44.66181945800781 C 117.662223815918 43.15584564208984 117.9706726074219 41.53998565673828 118.9160614013672 40.29468154907227 C 119.8614730834961 39.04937362670898 121.3349761962891 38.31798553466797 122.8984756469727 38.31798553466797 L 183.0010070800781 38.31798553466797 L 183.0010070800781 5.00001335144043 L 118.164306640625 5.00001335144043 C 115.0809631347656 11.95254230499268 109.7825927734375 16.13073539733887 103.769416809082 16.13073539733887 C 97.75624847412109 16.13073539733887 92.45790863037109 11.95256042480469 89.37457275390625 5.00001335144043 L 69.40464019775391 5.00001335144043 L 64.72156524658203 5.00001335144043 C 64.28603363037109 5.195956707000732 63.81584548950195 5.332035541534424 63.32091903686523 5.397097110748291 C 53.72136306762695 6.658957958221436 44.67789077758789 10.91554164886475 37.16811370849609 17.70670890808105 C 29.6756706237793 24.48212432861328 24.10903167724609 33.39348602294922 21.07000350952148 43.4774284362793 C 20.42339897155762 45.62295150756836 18.45129203796387 47.03535461425781 16.28632736206055 47.03535461425781 C 15.96106719970703 47.03535461425781 15.63111209869385 47.00342178344727 15.30100345611572 46.93732070922852 C 14.92383670806885 46.86182022094727 14.53661441802979 46.82351303100586 14.15011501312256 46.82351303100586 C 13.11661434173584 46.82351303100586 12.10055923461914 47.09245681762695 11.13014221191406 47.62284851074219 C 10.03975391387939 48.21881866455078 9.030142784118652 49.12365341186523 8.129392623901367 50.31226348876953 C 6.111364841461182 52.97507095336914 5.000003337860107 56.5914306640625 5.000003337860107 60.49518203735352 C 5.000003337860107 64.39893341064453 6.111364841461182 68.01528930664063 8.129392623901367 70.67815399169922 C 9.030142784118652 71.86670684814453 10.0397253036499 72.77153778076172 11.13014221191406 73.36751556396484 C 12.10055923461914 73.89790344238281 13.11661434173584 74.16684722900391 14.15011501312256 74.16684722900391 C 14.46053123474121 74.16684722900391 14.77403163909912 74.141845703125 15.0819206237793 74.09256744384766 C 15.34850215911865 74.04989624023438 15.61386680603027 74.02919769287109 15.87626934051514 74.02919769287109 C 18.08893585205078 74.02919769287109 20.08374214172363 75.50193023681641 20.69100379943848 77.69598388671875 C 22.27667045593262 83.42498779296875 24.67892074584961 88.81856536865234 27.83105850219727 93.72695922851563 C 30.92822647094727 98.54976654052734 34.67453002929688 102.790153503418 38.96597671508789 106.3302917480469 C 43.27986526489258 109.8889846801758 48.04130935668945 112.652961730957 53.11805725097656 114.5454559326172 C 58.34836578369141 116.4951782226563 63.82797622680664 117.4837646484375 69.40464019775391 117.4837646484375 M 69.40464019775391 122.4837646484375 C 63.22967147827148 122.4837646484375 57.1624755859375 121.3892059326172 51.37158584594727 119.2305145263672 C 45.77250289916992 117.1433181762695 40.52814102172852 114.1007385253906 35.78419876098633 110.1872634887695 C 31.09267044067383 106.3170700073242 27.00136375427246 101.6880722045898 23.62389183044434 96.42876434326172 C 20.19997596740723 91.09718322753906 17.59194755554199 85.24329376220703 15.87217044830322 79.02973937988281 C 15.30208683013916 79.12098693847656 14.72236442565918 79.16684722900391 14.15011501312256 79.16684722900391 C 10.37042045593262 79.16684722900391 6.817031383514404 77.22467803955078 4.144447803497314 73.69809722900391 C 1.471864700317383 70.17153930664063 3.540038960636593e-06 65.48262786865234 3.540038960636593e-06 60.49518203735352 C 3.540038960636593e-06 55.50770950317383 1.471864700317383 50.81882095336914 4.144447803497314 47.29228973388672 C 6.817031383514404 43.76567840576172 10.37042045593262 41.82351303100586 14.15011501312256 41.82351303100586 C 14.86547565460205 41.82351303100586 15.58297538757324 41.8945426940918 16.2826976776123 42.03465270996094 C 19.58442115783691 31.07904052734375 25.64714241027832 21.38390159606934 33.81447601318359 13.9981803894043 C 42.08072662353516 6.522930145263672 52.05855941772461 1.834513545036316 62.66928100585938 0.4397358000278473 L 62.66928100585938 1.358371355308918e-05 L 69.40464019775391 1.358371355308918e-05 L 92.85433959960938 1.358371355308918e-05 C 94.90341949462891 6.865985870361328 99.08547210693359 11.13073539733887 103.769416809082 11.13073539733887 C 108.4531173706055 11.13073539733887 112.6355285644531 6.86568021774292 114.6845626831055 1.358371355308918e-05 L 188.0010070800781 1.358371355308918e-05 L 188.0010070800781 43.31798553466797 L 122.8984756469727 43.31798553466797 C 124.5133666992188 49.10540390014648 125.3316955566406 55.13640213012695 125.3316955566406 61.24187469482422 C 125.3316955566406 69.50956726074219 123.8530044555664 77.52989959716797 120.9367294311523 85.08007049560547 C 118.1199722290039 92.3726806640625 114.0874481201172 98.92212677001953 108.951171875 104.5465393066406 C 103.8148956298828 110.1709060668945 97.83383941650391 114.5866546630859 91.17414093017578 117.6710968017578 C 84.27919769287109 120.8645401000977 76.95486450195313 122.4837646484375 69.40464019775391 122.4837646484375 Z" stroke="none" fill="#3880ff"/>
  </g>
  <g id="Ellipse_4" data-name="Ellipse 4" transform="translate(42.138 103.469)" fill="#fff" stroke="#3880ff" stroke-linecap="round" stroke-linejoin="round" stroke-width="5">
    <ellipse cx="25.283" cy="25.533" rx="25.283" ry="25.533" stroke="none"/>
    <ellipse cx="25.283" cy="25.533" rx="22.783" ry="23.033" fill="none"/>
  </g>
  <g id="Path_1" data-name="Path 1" transform="translate(55.842 12.119) rotate(-20)" fill="#fff" stroke-linecap="round" stroke-linejoin="round">
    <path d="M 4.787506103515625 44.54598999023438 L 4.933947563171387 3.221932172775269 L 13.247802734375 3.192845344543457 L 13.10136127471924 44.51691055297852 L 4.787506103515625 44.54598999023438 Z" stroke="none"/>
    <path d="M 10.73889923095703 5.701633453369141 L 7.425137519836426 5.713226318359375 L 7.296409606933594 42.03720092773438 L 10.6101713180542 42.02560806274414 L 10.73889923095703 5.701633453369141 M 15.75671005249023 0.684051513671875 L 15.59254360198975 47.00820541381836 L 2.278598785400391 47.05478286743164 L 2.442765235900879 0.7306289672851563 L 15.75671005249023 0.684051513671875 Z" stroke="none" fill="#3880ff"/>
  </g>
  <g id="Path_2" data-name="Path 2" transform="matrix(0.899, 0.438, -0.438, 0.899, 140.237, 7.746)" fill="#fff" stroke-linecap="round" stroke-linejoin="round">
    <path d="M 11.0130033493042 43.75469207763672 L 2.68817925453186 43.71863174438477 L 2.510828971862793 2.510910272598267 L 10.83565330505371 2.546977281570435 L 11.0130033493042 43.75469207763672 Z" stroke="none"/>
    <path d="M 5.021664619445801 5.021804809570313 L 5.177483558654785 41.22938919067383 L 8.502167701721191 41.24379348754883 L 8.346347808837891 5.036212921142578 L 5.021664619445801 5.021804809570313 M 4.76837158203125e-06 -3.814697265625e-06 L 13.32497215270996 0.0577392578125 L 13.52382755279541 46.26559448242188 L 0.1988601684570313 46.2078742980957 L 4.76837158203125e-06 -3.814697265625e-06 Z" stroke="none" fill="#3880ff"/>
  </g>
  <g id="Path_3" data-name="Path 3" transform="matrix(0.996, 0.087, -0.087, 0.996, 102.45, 0.384)" fill="#fff" stroke-linecap="round" stroke-linejoin="round">
    <path d="M 10.83937168121338 43.81135559082031 L 2.541461229324341 43.80339813232422 L 2.502373218536377 2.50240159034729 L 10.80028438568115 2.51033878326416 L 10.83937168121338 43.81135559082031 Z" stroke="none"/>
    <path d="M 5.004735946655273 5.004791259765625 L 5.039093971252441 41.3057861328125 L 8.337009429931641 41.3089485168457 L 8.302651405334473 5.007946014404297 L 5.004735946655273 5.004791259765625 M -4.76837158203125e-06 -3.814697265625e-06 L 13.29792785644531 0.01271820068359375 L 13.3417501449585 46.31375503540039 L 0.04381752014160156 46.30099868774414 L -4.76837158203125e-06 -3.814697265625e-06 Z" stroke="none" fill="#3880ff"/>
  </g>
</svg>
